<?xml version="1.0" encoding="UTF-8"?>
<svg version="1.1" xmlns="http://www.w3.org/2000/svg" width="512" height="512">
<path d="M0 0 C1.01790619 0.00215515 2.03581238 0.0043103 3.08456421 0.00653076 C17.69363523 0.05620146 32.02575853 0.30709809 46.375 3.3125 C47.34985352 3.51117676 48.32470703 3.70985352 49.32910156 3.91455078 C97.7109774 14.03517194 141.69928269 35.9516877 177.375 70.3125 C178.3640332 71.26068604 178.3640332 71.26068604 179.37304688 72.22802734 C188.86130305 81.37247479 197.6012044 90.66984009 205.375 101.3125 C206.23306152 102.46355017 207.09113451 103.61459177 207.94921875 104.765625 C213.98736829 112.95680614 219.34595521 121.47054105 224.375 130.3125 C224.73948242 130.94430176 225.10396484 131.57610352 225.47949219 132.22705078 C247.08534998 169.97532572 256.85198095 212.74189997 256.6875 255.9375 C256.68534485 256.95540619 256.6831897 257.97331238 256.68096924 259.02206421 C256.63129854 273.63113523 256.38040191 287.96325853 253.375 302.3125 C253.07698486 303.77478027 253.07698486 303.77478027 252.77294922 305.26660156 C242.65232806 353.6484774 220.7358123 397.63678269 186.375 433.3125 C185.74287598 433.97185547 185.11075195 434.63121094 184.45947266 435.31054688 C175.31502521 444.79880305 166.01765991 453.5387044 155.375 461.3125 C154.22394983 462.17056152 153.07290823 463.02863451 151.921875 463.88671875 C143.73224019 469.92427396 135.22961724 475.30707302 126.375 480.3125 C125.66778809 480.7146875 124.96057617 481.116875 124.23193359 481.53125 C101.09654164 494.5566741 75.92537591 503.30551461 49.9375 508.625 C49.21860596 508.77235596 48.49971191 508.91971191 47.7590332 509.0715332 C33.08339502 511.86090125 18.55831162 512.66142619 3.64770508 512.62817383 C0.70811513 512.6250221 -2.2304558 512.64854926 -5.16992188 512.67382812 C-18.54306192 512.71848737 -31.43916711 511.51301542 -44.625 509.3125 C-46.33055054 509.03031616 -46.33055054 509.03031616 -48.07055664 508.74243164 C-91.33802759 500.97044532 -132.38793216 480.98345309 -165.625 452.3125 C-166.37007813 451.67828125 -167.11515625 451.0440625 -167.8828125 450.390625 C-181.38779833 438.57948485 -194.05918743 425.82889772 -204.625 411.3125 C-205.48149066 410.16255169 -206.33826433 409.01281411 -207.1953125 407.86328125 C-213.23534209 399.67315742 -218.61867614 391.16870382 -223.625 382.3125 C-224.0271875 381.60528809 -224.429375 380.89807617 -224.84375 380.16943359 C-237.8691741 357.03404164 -246.61801461 331.86287591 -251.9375 305.875 C-252.08485596 305.15610596 -252.23221191 304.43721191 -252.3840332 303.6965332 C-255.35789088 288.05024391 -255.99800362 272.57681954 -255.9375 256.6875 C-255.93534485 255.66959381 -255.9331897 254.65168762 -255.93096924 253.60293579 C-255.88129854 238.99386477 -255.63040191 224.66174147 -252.625 210.3125 C-252.42632324 209.33764648 -252.22764648 208.36279297 -252.02294922 207.35839844 C-241.90232806 158.9765226 -219.9858123 114.98821731 -185.625 79.3125 C-184.99287598 78.65314453 -184.36075195 77.99378906 -183.70947266 77.31445312 C-174.56502521 67.82619695 -165.26765991 59.0862956 -154.625 51.3125 C-153.47394983 50.45443848 -152.32290823 49.59636549 -151.171875 48.73828125 C-142.98224019 42.70072604 -134.47961724 37.31792698 -125.625 32.3125 C-124.91778809 31.9103125 -124.21057617 31.508125 -123.48193359 31.09375 C-100.34654164 18.0683259 -75.17537591 9.31948539 -49.1875 4 C-48.46860596 3.85264404 -47.74971191 3.70528809 -47.0090332 3.5534668 C-31.36274391 0.57960912 -15.88931954 -0.06050362 0 0 Z " fill="#FCBA0E" transform="translate(255.625,-0.3125)"/>
<path d="M0 0 C69.96 0 139.92 0 212 0 C212 79.2 212 158.4 212 240 C142.04 240 72.08 240 0 240 C0 160.8 0 81.6 0 0 Z " fill="#FEFEFE" transform="translate(150,136)"/>
<path d="M0 0 C2.64 0 5.28 0 8 0 C8 79.2 8 158.4 8 240 C-61.96 240 -131.92 240 -204 240 C-204 237.36 -204 234.72 -204 232 C-136.68 232 -69.36 232 0 232 C0 155.44 0 78.88 0 0 Z " fill="#B28608" transform="translate(362,144)"/>
<path d="M0 0 C4.11276845 2.05638422 6.96711941 4.56464377 10.25 7.6875 C11.41725351 8.78201327 12.58521929 9.87576745 13.75390625 10.96875 C14.31480957 11.4946875 14.87571289 12.020625 15.45361328 12.5625 C17.9318284 14.86621497 20.48461939 17.07932331 23.04296875 19.29296875 C25.3855915 21.33633431 27.69273422 23.41680859 30 25.5 C33.61404058 28.76145125 37.25789354 31.98359155 40.9296875 35.1796875 C43.34827961 37.3062232 45.73653963 39.46469106 48.125 41.625 C51.6845614 44.83849293 55.28439311 47.96884701 59 51 C57.48947977 54.67670584 55.3511385 56.71874462 52.375 59.3125 C51.47523438 60.10269531 50.57546875 60.89289063 49.6484375 61.70703125 C48.77445312 62.46371094 47.90046875 63.22039062 47 64 C45.66635729 65.166313 44.33299624 66.33294819 43 67.5 C42.360625 68.056875 41.72125 68.61375 41.0625 69.1875 C38.69035571 71.27211164 36.34443935 73.38428644 34 75.5 C30.38323655 78.76390848 26.73610392 81.98790949 23.0625 85.1875 C20.69035571 87.27211164 18.34443935 89.38428644 16 91.5 C14.74316406 92.62728516 14.74316406 92.62728516 13.4609375 93.77734375 C11.87021781 95.21404138 10.29114605 96.66378935 8.7265625 98.12890625 C8.03304687 98.76699219 7.33953125 99.40507812 6.625 100.0625 C6.01914062 100.63097656 5.41328125 101.19945312 4.7890625 101.78515625 C3 103 3 103 -1 103 C-2.484375 101.46875 -2.484375 101.46875 -3.75 99.5 C-4.17796875 98.8503125 -4.6059375 98.200625 -5.046875 97.53125 C-5.36140625 97.0259375 -5.6759375 96.520625 -6 96 C-1.04882086 91.45694409 3.93614968 87.00727233 9.1875 82.8125 C14.56439948 78.46814878 19.59600324 73.80422261 24.61010742 69.0480957 C25.20799072 68.48179443 25.80587402 67.91549316 26.421875 67.33203125 C26.94362305 66.83421143 27.46537109 66.3363916 28.00292969 65.82348633 C30.93782446 63.1436906 33.98250062 60.58642804 37 58 C1.03 57.67 -34.94 57.34 -72 57 C-72 53.7 -72 50.4 -72 47 C-36.03 46.67 -0.06 46.34 37 46 C27.05520176 36.69583043 27.05520176 36.69583043 16.91015625 27.6640625 C14.63795489 25.68459874 12.41540128 23.6541683 10.1875 21.625 C4.94477624 16.88779548 -0.49413388 12.42772123 -6 8 C-4.02 5.36 -2.04 2.72 0 0 Z " fill="#F9BD10" transform="translate(281,204)"/>
<path d="M0 0 C14.20388063 -0.16230633 28.40754006 -0.28662936 42.61215973 -0.3626852 C49.20824476 -0.39919148 55.80369459 -0.44869706 62.39941406 -0.52807617 C68.76665983 -0.60422465 75.13329527 -0.64600988 81.5009613 -0.6641407 C83.9282746 -0.6770586 86.3555551 -0.70228487 88.78260803 -0.7401104 C92.18718204 -0.7910525 95.58924582 -0.79791818 98.99414062 -0.79467773 C99.99395966 -0.81984467 100.99377869 -0.8450116 102.02389526 -0.87094116 C108.62837977 -0.80308322 111.91483808 0.76705745 116.63692474 5.39903164 C118 7 118 7 118 8 C81.7 8 45.4 8 8 8 C8 8.66 8 9.32 8 10 C5.36 10 2.72 10 0 10 C0 6.7 0 3.4 0 0 Z " fill="#B1840A" transform="translate(209,251)"/>
<path d="M0 0 C-3.65605216 4.4786639 -7.39748996 8.37267275 -11.796875 12.1171875 C-14.23753149 14.20299677 -16.61948824 16.34585592 -19 18.5 C-22.60648273 21.75463076 -26.2429674 24.96979743 -29.90625 28.16015625 C-33.97295412 31.73369663 -37.98345603 35.3702953 -42 39 C-46.13718891 37.20953589 -47.66320139 34.83902629 -50 31 C-44.14866898 25.63099128 -38.19820687 20.47660178 -31.96875 15.55078125 C-29.70826084 13.60854517 -27.73878543 11.71108505 -25.71875 9.54296875 C-17.39611526 0.7865926 -12.25524552 -2.0082125 0 0 Z " fill="#B4880F" transform="translate(325,269)"/>
<path d="M0 0 C4.53786224 2.26893112 5.94678157 4.09866534 9 8 C7.35 9.98 5.7 11.96 4 14 C-0.37859255 13.49477778 -2.81651224 10.82172778 -6 8 C-4.02 5.36 -2.04 2.72 0 0 Z " fill="#B58912" transform="translate(281,204)"/>
</svg>
