<?xml version="1.0" encoding="UTF-8"?>
<svg version="1.1" xmlns="http://www.w3.org/2000/svg" width="512" height="512">
<path d="M0 0 C1.01790619 0.00215515 2.03581238 0.0043103 3.08456421 0.00653076 C17.69363523 0.05620146 32.02575853 0.30709809 46.375 3.3125 C47.34985352 3.51117676 48.32470703 3.70985352 49.32910156 3.91455078 C97.7109774 14.03517194 141.69928269 35.9516877 177.375 70.3125 C178.3640332 71.26068604 178.3640332 71.26068604 179.37304688 72.22802734 C188.86130305 81.37247479 197.6012044 90.66984009 205.375 101.3125 C206.23306152 102.46355017 207.09113451 103.61459177 207.94921875 104.765625 C213.98736829 112.95680614 219.34595521 121.47054105 224.375 130.3125 C224.73948242 130.94430176 225.10396484 131.57610352 225.47949219 132.22705078 C247.08534998 169.97532572 256.85198095 212.74189997 256.6875 255.9375 C256.68534485 256.95540619 256.6831897 257.97331238 256.68096924 259.02206421 C256.63129854 273.63113523 256.38040191 287.96325853 253.375 302.3125 C253.07698486 303.77478027 253.07698486 303.77478027 252.77294922 305.26660156 C242.65232806 353.6484774 220.7358123 397.63678269 186.375 433.3125 C185.74287598 433.97185547 185.11075195 434.63121094 184.45947266 435.31054688 C175.31502521 444.79880305 166.01765991 453.5387044 155.375 461.3125 C154.22394983 462.17056152 153.07290823 463.02863451 151.921875 463.88671875 C143.73224019 469.92427396 135.22961724 475.30707302 126.375 480.3125 C125.66778809 480.7146875 124.96057617 481.116875 124.23193359 481.53125 C101.09654164 494.5566741 75.92537591 503.30551461 49.9375 508.625 C49.21860596 508.77235596 48.49971191 508.91971191 47.7590332 509.0715332 C33.08339502 511.86090125 18.55831162 512.66142619 3.64770508 512.62817383 C0.70811513 512.6250221 -2.2304558 512.64854926 -5.16992188 512.67382812 C-18.54306192 512.71848737 -31.43916711 511.51301542 -44.625 509.3125 C-46.33055054 509.03031616 -46.33055054 509.03031616 -48.07055664 508.74243164 C-91.33802759 500.97044532 -132.38793216 480.98345309 -165.625 452.3125 C-166.37007813 451.67828125 -167.11515625 451.0440625 -167.8828125 450.390625 C-181.38779833 438.57948485 -194.05918743 425.82889772 -204.625 411.3125 C-205.48149066 410.16255169 -206.33826433 409.01281411 -207.1953125 407.86328125 C-213.23534209 399.67315742 -218.61867614 391.16870382 -223.625 382.3125 C-224.0271875 381.60528809 -224.429375 380.89807617 -224.84375 380.16943359 C-237.8691741 357.03404164 -246.61801461 331.86287591 -251.9375 305.875 C-252.08485596 305.15610596 -252.23221191 304.43721191 -252.3840332 303.6965332 C-255.35789088 288.05024391 -255.99800362 272.57681954 -255.9375 256.6875 C-255.93534485 255.66959381 -255.9331897 254.65168762 -255.93096924 253.60293579 C-255.88129854 238.99386477 -255.63040191 224.66174147 -252.625 210.3125 C-252.42632324 209.33764648 -252.22764648 208.36279297 -252.02294922 207.35839844 C-241.90232806 158.9765226 -219.9858123 114.98821731 -185.625 79.3125 C-184.99287598 78.65314453 -184.36075195 77.99378906 -183.70947266 77.31445312 C-174.56502521 67.82619695 -165.26765991 59.0862956 -154.625 51.3125 C-153.47394983 50.45443848 -152.32290823 49.59636549 -151.171875 48.73828125 C-142.98224019 42.70072604 -134.47961724 37.31792698 -125.625 32.3125 C-124.91778809 31.9103125 -124.21057617 31.508125 -123.48193359 31.09375 C-100.34654164 18.0683259 -75.17537591 9.31948539 -49.1875 4 C-48.46860596 3.85264404 -47.74971191 3.70528809 -47.0090332 3.5534668 C-31.36274391 0.57960912 -15.88931954 -0.06050362 0 0 Z " fill="#FCBA0E" transform="translate(255.625,-0.3125)"/>
<path d="M0 0 C10.00000573 -0.4792335 19.07297155 2.68255578 26.71875 9.1328125 C31.95063221 14.42483129 37.54059943 21.30801842 37.8828125 29.0078125 C37.8415625 29.7296875 37.8003125 30.4515625 37.7578125 31.1953125 C38.41007813 30.85757813 39.06234375 30.51984375 39.734375 30.171875 C40.60835937 29.72585937 41.48234375 29.27984375 42.3828125 28.8203125 C43.67058594 28.15902344 43.67058594 28.15902344 44.984375 27.484375 C54.43262892 23.09293304 63.56081581 22.74450985 73.4453125 26.1328125 C85.13661867 31.15950936 92.40502582 39.9657452 97.1328125 51.5703125 C99.24104933 63.79808609 96.56820807 73.44608069 90.7578125 84.1953125 C91.7478125 84.2778125 92.7378125 84.3603125 93.7578125 84.4453125 C101.79404303 85.64185387 108.33508323 90.3132198 113.7578125 96.1953125 C120.69328753 105.60116691 122.8944716 114.58412394 121.7578125 126.1953125 C119.24861006 138.20041878 113.28878496 146.15499747 103.12109375 152.8203125 C98.84073725 155.31070174 95.69155325 156.1953125 90.7578125 156.1953125 C91.26441406 157.13890625 91.26441406 157.13890625 91.78125 158.1015625 C97.39593455 168.87656407 99.42327627 177.88472239 96.1328125 189.7578125 C94.21962737 195.50405734 91.92079969 199.81017054 87.7578125 204.1953125 C87.17128906 204.82179688 86.58476562 205.44828125 85.98046875 206.09375 C78.74221838 213.10996815 68.50728642 216.5842998 58.46484375 216.484375 C51.10751767 215.69874422 43.95773949 213.20230235 37.7578125 209.1953125 C37.6753125 210.1853125 37.5928125 211.1753125 37.5078125 212.1953125 C36.20432408 220.94982256 30.6918445 228.30850362 23.84375 233.703125 C14.69847317 239.78783109 5.66259411 241.25651608 -5.2421875 240.1953125 C-14.92510087 238.18541273 -23.1724948 232.53156089 -29.1796875 224.6953125 C-32.2944597 219.86852012 -34.2421875 214.99375045 -34.2421875 209.1953125 C-34.88285156 209.53304687 -35.52351563 209.87078125 -36.18359375 210.21875 C-46.02622884 215.29408791 -55.08192108 218.10516209 -66.1796875 215.5078125 C-76.72857358 211.99151714 -85.57425211 205.17920968 -90.7890625 195.25 C-95.4648276 184.34863756 -95.79688828 174.65846849 -91.41015625 163.6328125 C-90.17053689 161.04578078 -88.75880494 158.62885338 -87.2421875 156.1953125 C-88.3353125 156.1746875 -89.4284375 156.1540625 -90.5546875 156.1328125 C-98.66977891 155.10941731 -106.10673299 149.35014019 -111.03515625 143.015625 C-117.57221142 133.15715345 -119.67035697 123.2187469 -117.8125 111.48046875 C-115.10742473 100.9106376 -108.31762362 92.98814406 -99.2421875 87.1953125 C-95.21311721 84.93903314 -91.8717319 84.06146513 -87.2421875 84.1953125 C-87.57992187 83.55464844 -87.91765625 82.91398437 -88.265625 82.25390625 C-93.34096291 72.41127116 -96.15203709 63.35557892 -93.5546875 52.2578125 C-89.95688936 41.46441807 -82.96803248 33.17591463 -73.1796875 27.3828125 C-63.27338387 23.37813657 -53.78812527 22.38111885 -43.6796875 26.5703125 C-41.8540222 27.41750047 -40.03960858 28.28974157 -38.2421875 29.1953125 C-37.47003906 29.57945312 -36.69789063 29.96359375 -35.90234375 30.359375 C-35.35449219 30.63523438 -34.80664062 30.91109375 -34.2421875 31.1953125 C-34.2215625 30.1021875 -34.2009375 29.0090625 -34.1796875 27.8828125 C-33.0866053 19.53698216 -27.53364353 12.92058285 -21.2421875 7.6953125 C-14.38385276 2.62159739 -8.53583486 0.74353962 0 0 Z " fill="#FEFEFC" transform="translate(254.2421875,135.8046875)"/>
<path d="M0 0 C10.00000573 -0.4792335 19.07297155 2.68255578 26.71875 9.1328125 C31.95063221 14.42483129 37.54059943 21.30801842 37.8828125 29.0078125 C37.8415625 29.7296875 37.8003125 30.4515625 37.7578125 31.1953125 C38.41007813 30.85757813 39.06234375 30.51984375 39.734375 30.171875 C40.60835937 29.72585937 41.48234375 29.27984375 42.3828125 28.8203125 C43.67058594 28.15902344 43.67058594 28.15902344 44.984375 27.484375 C54.43262892 23.09293304 63.56081581 22.74450985 73.4453125 26.1328125 C85.13661867 31.15950936 92.40502582 39.9657452 97.1328125 51.5703125 C99.24104933 63.79808609 96.56820807 73.44608069 90.7578125 84.1953125 C91.7478125 84.2778125 92.7378125 84.3603125 93.7578125 84.4453125 C101.79404303 85.64185387 108.33508323 90.3132198 113.7578125 96.1953125 C120.69328753 105.60116691 122.8944716 114.58412394 121.7578125 126.1953125 C119.24861006 138.20041878 113.28878496 146.15499747 103.12109375 152.8203125 C98.84073725 155.31070174 95.69155325 156.1953125 90.7578125 156.1953125 C91.26441406 157.13890625 91.26441406 157.13890625 91.78125 158.1015625 C97.39593455 168.87656407 99.42327627 177.88472239 96.1328125 189.7578125 C94.21962737 195.50405734 91.92079969 199.81017054 87.7578125 204.1953125 C87.17128906 204.82179688 86.58476562 205.44828125 85.98046875 206.09375 C78.74221838 213.10996815 68.50728642 216.5842998 58.46484375 216.484375 C51.10751767 215.69874422 43.95773949 213.20230235 37.7578125 209.1953125 C37.6753125 210.1853125 37.5928125 211.1753125 37.5078125 212.1953125 C36.20432408 220.94982256 30.6918445 228.30850362 23.84375 233.703125 C14.69847317 239.78783109 5.66259411 241.25651608 -5.2421875 240.1953125 C-14.92510087 238.18541273 -23.1724948 232.53156089 -29.1796875 224.6953125 C-32.2944597 219.86852012 -34.2421875 214.99375045 -34.2421875 209.1953125 C-34.88285156 209.53304687 -35.52351563 209.87078125 -36.18359375 210.21875 C-46.02622884 215.29408791 -55.08192108 218.10516209 -66.1796875 215.5078125 C-76.72857358 211.99151714 -85.57425211 205.17920968 -90.7890625 195.25 C-95.4648276 184.34863756 -95.79688828 174.65846849 -91.41015625 163.6328125 C-90.17053689 161.04578078 -88.75880494 158.62885338 -87.2421875 156.1953125 C-88.3353125 156.1746875 -89.4284375 156.1540625 -90.5546875 156.1328125 C-98.66977891 155.10941731 -106.10673299 149.35014019 -111.03515625 143.015625 C-117.57221142 133.15715345 -119.67035697 123.2187469 -117.8125 111.48046875 C-115.10742473 100.9106376 -108.31762362 92.98814406 -99.2421875 87.1953125 C-95.21311721 84.93903314 -91.8717319 84.06146513 -87.2421875 84.1953125 C-87.57992187 83.55464844 -87.91765625 82.91398437 -88.265625 82.25390625 C-93.34096291 72.41127116 -96.15203709 63.35557892 -93.5546875 52.2578125 C-89.95688936 41.46441807 -82.96803248 33.17591463 -73.1796875 27.3828125 C-63.27338387 23.37813657 -53.78812527 22.38111885 -43.6796875 26.5703125 C-41.8540222 27.41750047 -40.03960858 28.28974157 -38.2421875 29.1953125 C-37.47003906 29.57945312 -36.69789063 29.96359375 -35.90234375 30.359375 C-35.35449219 30.63523438 -34.80664062 30.91109375 -34.2421875 31.1953125 C-34.2215625 30.1021875 -34.2009375 29.0090625 -34.1796875 27.8828125 C-33.0866053 19.53698216 -27.53364353 12.92058285 -21.2421875 7.6953125 C-14.38385276 2.62159739 -8.53583486 0.74353962 0 0 Z M-67.2421875 65.1953125 C-81.81184299 84.17035522 -88.84052264 107.49040461 -85.78125 131.30078125 C-82.71828777 151.04391307 -74.17155522 167.83224651 -60.2421875 182.1953125 C-59.70335937 182.80761719 -59.16453125 183.41992188 -58.609375 184.05078125 C-47.00611599 196.79104303 -27.42586467 205.89598444 -10.48925781 207.56518555 C-6.6906831 207.69287496 -2.91725279 207.69310013 0.8828125 207.6328125 C2.14996094 207.63990234 3.41710937 207.64699219 4.72265625 207.65429688 C27.55876326 207.50142901 47.50379403 197.95853467 63.7578125 182.1953125 C64.37011719 181.65648437 64.98242188 181.11765625 65.61328125 180.5625 C74.72779401 172.26141058 80.61478062 160.62549532 84.7578125 149.1953125 C85.05300781 148.43992187 85.34820312 147.68453125 85.65234375 146.90625 C93.41818552 125.86579199 90.64779127 103.03806585 81.68188477 82.95532227 C71.32306204 61.12848427 53.23059332 45.59548299 30.7578125 37.1953125 C29.99855469 36.89753906 29.23929687 36.59976563 28.45703125 36.29296875 C-6.02219123 23.62327274 -44.33301242 38.00397753 -67.2421875 65.1953125 Z " fill="#FEFDFB" transform="translate(254.2421875,135.8046875)"/>
<path d="M0 0 C3.49412009 2.84724232 6.77232956 5.85616516 10 9 C10.86625 9.804375 11.7325 10.60875 12.625 11.4375 C29.38306791 29.51857327 37.96803094 52.02121217 37.13183594 76.68896484 C35.86703225 98.86050497 26.40763038 118.11264486 11 134 C10.46117187 134.61230469 9.92234375 135.22460938 9.3671875 135.85546875 C1.07695835 144.95805703 -10.57278962 150.8829625 -22 155 C-22.83660156 155.30679688 -23.67320312 155.61359375 -24.53515625 155.9296875 C-42.19850357 162.12217988 -66.83424083 161.7363614 -84 154 C-84.65484375 153.70528809 -85.3096875 153.41057617 -85.984375 153.10693359 C-94.46540371 149.15610554 -102.05952989 144.30643043 -109 138 C-109.90363281 137.18917969 -110.80726563 136.37835938 -111.73828125 135.54296875 C-122.15005463 125.70722709 -129.11032502 114.49009144 -134 101 C-134.29519531 100.24460937 -134.59039062 99.48921875 -134.89453125 98.7109375 C-142.41572443 78.33332052 -140.21792764 55.36364338 -131.39453125 35.82421875 C-126.22236462 25.34949474 -120.19502137 17.20640335 -112 9 C-111.195625 8.18402344 -110.39125 7.36804688 -109.5625 6.52734375 C-80.00287389 -21.81683721 -32.93818525 -23.03336926 0 0 Z M-109.8125 19.8125 C-116.92632065 28.14247014 -122.59638083 37.57538864 -126 48 C-126.29777344 48.81726563 -126.59554687 49.63453125 -126.90234375 50.4765625 C-132.92771305 69.74663759 -129.4016668 91.31947414 -120.25 108.9375 C-109.41155584 128.53116158 -92.47361829 141.17546057 -71.4375 148.1875 C-51.61665784 152.87242633 -29.60975459 150.33540306 -11.87109375 140.21484375 C6.89808778 128.15750236 19.36098179 111.76416487 25.4921875 90.34375 C26.77744633 84.41178615 27.16572797 78.66563727 27.125 72.625 C27.12016602 71.87259033 27.11533203 71.12018066 27.11035156 70.3449707 C26.87956614 49.0273212 18.24323515 30.7059716 3.51953125 15.42578125 C-5.81782043 6.68221982 -15.89248645 1.0162226 -28 -3 C-29.32837891 -3.48146484 -29.32837891 -3.48146484 -30.68359375 -3.97265625 C-59.30953879 -12.90528061 -89.86084586 -1.23239547 -109.8125 19.8125 Z " fill="#B58613" transform="translate(307,184)"/>
<path d="M0 0 C8.57110009 6.10690881 13.27574232 14.18299925 16.1875 24.1875 C17.4830176 35.92247918 14.62404694 45.63291658 7.81640625 55.1875 C1.57897127 62.84593336 -6.98926384 67.79147684 -16.8125 69.1875 C-27.35522486 70.16340441 -36.01879952 68.2266465 -44.625 61.9375 C-53.19122784 54.73269052 -59.02697157 44.8540678 -60.05078125 33.55859375 C-60.32123847 22.86841635 -57.7199107 14.48432607 -50.78515625 6.25390625 C-36.41249527 -8.80181188 -17.66062367 -10.99734996 0 0 Z " fill="#FEFEFC" transform="translate(277.8125,224.8125)"/>
<path d="M0 0 C10.57899155 7.02375668 18.29203243 17.79787532 21.046875 30.2734375 C22.403369 44.92872398 21.18429101 57.90114092 11.5078125 69.640625 C2.72338725 79.45851204 -7.24738677 86.70859366 -20.78125 87.7578125 C-36.4368815 88.42553174 -47.94652681 84.42226443 -59.578125 73.8984375 C-71.11394061 61.14832551 -73.79789154 49.38685612 -73.13232422 32.5390625 C-72.29323379 21.93039879 -65.67675719 12.2435446 -57.953125 5.2734375 C-57.46457031 4.79261719 -56.97601563 4.31179687 -56.47265625 3.81640625 C-41.07868499 -10.62686845 -17.38806155 -10.16603598 0 0 Z M-54.92578125 15.33984375 C-61.66447921 23.33757657 -64.68782625 31.90590631 -64.26953125 42.36328125 C-63.04051379 53.66720723 -57.89367369 63.62055927 -49.03125 70.80859375 C-45.83367239 73.06252534 -42.55379642 74.76176321 -38.953125 76.2734375 C-38.045625 76.6859375 -37.138125 77.0984375 -36.203125 77.5234375 C-25.33881101 80.03058688 -15.37202382 77.90350668 -5.765625 72.5859375 C3.01089089 67.00589208 7.58219052 59.55838293 11.296875 50.0859375 C13.44114383 39.18590426 12.43273554 29.3019178 6.50390625 19.80078125 C-0.4970607 10.20449017 -8.90904554 5.95479732 -19.953125 2.2734375 C-34.28866401 1.03129563 -45.00256295 4.94502695 -54.92578125 15.33984375 Z " fill="#B5880F" transform="translate(281.953125,215.7265625)"/>
<path d="M0 0 C6.97447184 6.35907726 12.50254129 13.90580625 13.1796875 23.5625 C13.4903273 35.9880921 10.385953 45.95473753 1.92578125 55.17578125 C-3.67160715 60.4779727 -10.19404059 64 -18 64 C-17.57847656 64.88042969 -17.15695312 65.76085937 -16.72265625 66.66796875 C-16.17480469 67.82941406 -15.62695312 68.99085938 -15.0625 70.1875 C-14.51722656 71.33605469 -13.97195313 72.48460937 -13.41015625 73.66796875 C-9.4586665 83.00486836 -10.59842703 91.47569516 -13.7421875 100.91796875 C-15.53017253 105.29908734 -17.75453909 108.58134744 -21 112 C-21.87978516 112.93972656 -21.87978516 112.93972656 -22.77734375 113.8984375 C-30.01559412 120.91465565 -40.25052608 124.3889873 -50.29296875 124.2890625 C-57.65029483 123.50343172 -64.80007301 121.00698985 -71 117 C-71.0825 117.99 -71.165 118.98 -71.25 120 C-72.55348842 128.75451006 -78.065968 136.11319112 -84.9140625 141.5078125 C-94.05933933 147.59251859 -103.09521839 149.06120358 -114 148 C-122.55493443 146.22423685 -128.57420036 141.74279708 -135 136 C-134.505 135.01 -134.505 135.01 -134 134 C-133.46890625 134.27714844 -132.9378125 134.55429687 -132.390625 134.83984375 C-131.68421875 135.20207031 -130.9778125 135.56429687 -130.25 135.9375 C-129.55390625 136.29714844 -128.8578125 136.65679687 -128.140625 137.02734375 C-120.27922593 140.59940282 -110.24554293 140.10075148 -102.1875 137.4375 C-93.18602614 133.65158599 -86.40718895 127.75787549 -82 119 C-80.78646104 115.70873524 -79.81191363 112.41146164 -79 109 C-78.30390625 109.28617187 -77.6078125 109.57234375 -76.890625 109.8671875 C-62.90009034 115.3499646 -53.13413886 116.77889475 -39 111 C-35.98913166 109.29841806 -33.50670779 107.3747758 -31 105 C-30.44699219 104.48695313 -29.89398438 103.97390625 -29.32421875 103.4453125 C-22.71659796 96.59175049 -19.62905299 86.11120942 -19.70703125 76.70703125 C-20.48113342 69.55432723 -23.27895586 62.61875601 -26 56 C-25.23816406 55.79246094 -24.47632813 55.58492188 -23.69140625 55.37109375 C-13.34022518 52.2825391 -5.91035445 47.73452731 -0.21875 38.375 C4.64535434 28.89623256 5.61830237 18.73618528 2.5625 8.5 C2.04464443 6.99896936 1.52406306 5.49887467 1 4 C0.65168938 2.67050062 0.31325859 1.33819204 0 0 Z " fill="#B4890A" transform="translate(371,236)"/>
<path d="M0 0 C8.36993863 3.06771506 14.16893779 16.54315851 17.78515625 24.15625 C24.63314035 40.18625779 26.02580717 60.61629602 19.68603516 76.9753418 C14.47590085 89.42800557 7.57207882 99.5224269 -2 109 C-2.77988281 109.80179687 -3.55976563 110.60359375 -4.36328125 111.4296875 C-17.30465545 124.00130815 -35.03012848 132.4171934 -53.125 132.4375 C-76.3423603 131.97476799 -92.98521838 124.05152967 -111 110 C-110.505 109.01 -110.505 109.01 -110 108 C-109.17757812 108.53109375 -108.35515625 109.0621875 -107.5078125 109.609375 C-88.96371838 121.41219145 -68.58366725 126.13044313 -46.75 121.8125 C-26.52310572 116.81363368 -9.44583964 106.07503195 1.9609375 88.40234375 C9.83394378 75.26558422 14.22831511 61.94835243 14.125 46.625 C14.11774902 45.4963855 14.11774902 45.4963855 14.11035156 44.3449707 C13.93051709 27.73366006 8.67052461 14.17643638 0 0 Z " fill="#B4890E" transform="translate(319,210)"/>
<path d="M0 0 C2.74816013 1.89023197 5.35651873 3.68446646 7.765625 5.9921875 C7.765625 6.9821875 7.765625 7.9721875 7.765625 8.9921875 C6.94578125 8.57066406 6.1259375 8.14914063 5.28125 7.71484375 C4.20359375 7.16699219 3.1259375 6.61914062 2.015625 6.0546875 C0.94828125 5.50941406 -0.1190625 4.96414062 -1.21875 4.40234375 C-12.24506317 -0.75374311 -28.12943637 0.97292734 -39.234375 4.9921875 C-48.42581992 8.48138276 -56.10527963 14.99928229 -60.234375 23.9921875 C-65.67063811 37.4669905 -66.6754114 52.90125798 -61.3046875 66.546875 C-60.95148438 67.35382813 -60.59828125 68.16078125 -60.234375 68.9921875 C-59.56532238 70.6578978 -58.89794838 72.32428685 -58.234375 73.9921875 C-58.894375 73.9921875 -59.554375 73.9921875 -60.234375 73.9921875 C-71.48395301 60.96507876 -74.0733763 48.95966819 -73.41357422 32.2578125 C-72.57448379 21.64914879 -65.95800719 11.9622946 -58.234375 4.9921875 C-57.74582031 4.51136719 -57.25726563 4.03054687 -56.75390625 3.53515625 C-41.39107881 -10.878898 -17.19575072 -10.67465685 0 0 Z " fill="#B48611" transform="translate(282.234375,216.0078125)"/>
<path d="M0 0 C4.08319218 -0.0885085 8.16613163 -0.14089063 12.25 -0.1875 C13.38953125 -0.21263672 14.5290625 -0.23777344 15.703125 -0.26367188 C31.02349998 -0.39424325 45.66807515 4.23352496 58.5859375 12.47265625 C61.13175943 14.12914004 61.13175943 14.12914004 64.48046875 15.82421875 C78.540223 23.83918624 85.812216 44.7937912 90.08984375 59.4765625 C91.66302679 65.56673892 92.15816562 71.18578003 92.125 77.4375 C92.12886719 78.16259766 92.13273437 78.88769531 92.13671875 79.63476562 C92.12853408 84.18953626 91.74598339 88.50633814 91 93 C90.67 93 90.34 93 90 93 C89.94054199 92.04915527 89.94054199 92.04915527 89.87988281 91.07910156 C88.95149499 74.11371772 88.95149499 74.11371772 84 58 C83.57847656 57.02417969 83.15695312 56.04835937 82.72265625 55.04296875 C78.02509254 44.90612074 71.81876997 35.90164606 63 29 C61.91994206 27.74405476 60.85901836 26.47152607 59.8125 25.1875 C47.34138262 10.665212 27.20928653 2.76918363 8.39575195 1.30395508 C5.59771289 1.14270527 2.80219852 1.0454634 0 1 C0 0.67 0 0.34 0 0 Z " fill="#FBC014" transform="translate(252,177)"/>
<path d="M0 0 C0.33 0 0.66 0 1 0 C1.01417969 0.87398437 1.02835938 1.74796875 1.04296875 2.6484375 C1.87217357 24.0284753 9.16860328 43.34757954 24 59 C25.33174076 60.19220175 26.68345727 61.36284582 28.0625 62.5 C29.5165625 63.7375 29.5165625 63.7375 31 65 C31 65.99 31 66.98 31 68 C31.804375 68.36351562 31.804375 68.36351562 32.625 68.734375 C35.61580494 70.32815921 38.25049923 72.26874209 41 74.25 C53.89597124 83.32703966 66.39880643 88.09707055 82.125 89.1875 C83.176875 89.26935547 84.22875 89.35121094 85.3125 89.43554688 C87.87442746 89.633514 90.43665663 89.82148259 93 90 C93 90.33 93 90.66 93 91 C59.47051187 92.07096645 59.47051187 92.07096645 46 86 C45.34515625 85.70528809 44.6903125 85.41057617 44.015625 85.10693359 C35.52704722 81.15258886 27.99427474 76.25664878 21 70 C20.42894531 69.52175781 19.85789063 69.04351562 19.26953125 68.55078125 C8.51319169 58.90049203 2.02720961 40.05672411 0 26 C-0.07733849 23.91003127 -0.10800958 21.81793605 -0.09765625 19.7265625 C-0.09443359 18.57285156 -0.09121094 17.41914063 -0.08789062 16.23046875 C-0.07951172 15.04066406 -0.07113281 13.85085938 -0.0625 12.625 C-0.05798828 11.41199219 -0.05347656 10.19898438 -0.04882812 8.94921875 C-0.03708354 5.96609493 -0.0206584 2.98307321 0 0 Z " fill="#FAB817" transform="translate(177,252)"/>
<path d="M0 0 C11.64225388 -0.5532222 21.42997088 -0.64037319 32 5 C32.76699219 5.38800781 33.53398437 5.77601563 34.32421875 6.17578125 C41.30554709 10.4709604 45.24891753 19.23059738 47.578125 26.90478516 C48.04923426 29.24451877 48.11295237 31.37943063 48.09765625 33.765625 C48.09443359 34.65507812 48.09121094 35.54453125 48.08789062 36.4609375 C48.07532227 37.84152344 48.07532227 37.84152344 48.0625 39.25 C48.05798828 40.18585938 48.05347656 41.12171875 48.04882812 42.0859375 C48.03706918 44.39069041 48.02063426 46.69531227 48 49 C47.67 49 47.34 49 47 49 C46.9175 47.741875 46.835 46.48375 46.75 45.1875 C45.62312818 35.48726551 41.97225623 26.95508318 35 20 C34.34 20 33.68 20 33 20 C31.80859375 18.4609375 31.80859375 18.4609375 30.4375 16.375 C24.27950815 7.95610293 14.81836993 3.61245411 4.74609375 1.53515625 C3.17107243 1.30288038 1.58580403 1.14096036 0 1 C0 0.67 0 0.34 0 0 Z " fill="#FBBD14" transform="translate(255,217)"/>
<path d="M0 0 C0.33 0 0.66 0 1 0 C1.14695313 0.95519531 1.29390625 1.91039062 1.4453125 2.89453125 C3.58370904 15.22103546 7.00052169 24.14601689 16.97265625 32.29296875 C19 34 19 34 21.0625 36.6875 C26.95506997 43.72056738 36.20785813 46.67435132 45.0625 47.6875 C46.361875 47.790625 47.66125 47.89375 49 48 C49 48.33 49 48.66 49 49 C36.97716303 49.53940944 26.83747605 49.88140886 16 44 C15.22269531 43.58878906 14.44539062 43.17757812 13.64453125 42.75390625 C5.62734454 37.68487826 2.01182387 27.92281144 0 19 C-0.21997893 15.68123277 -0.1907225 12.38654204 -0.125 9.0625 C-0.11597656 8.18787109 -0.10695312 7.31324219 -0.09765625 6.41210938 C-0.0742957 4.27461936 -0.03843247 2.13727214 0 0 Z " fill="#FAB916" transform="translate(217,254)"/>
<path d="M0 0 C1.19287411 3.87684087 2 6.91621923 2 11 C-7.76631512 15.30640667 -16.44191041 16.76357089 -26.75 13.375 C-32.92032635 10.86579348 -38.2725535 7.59116975 -42 2 C-40.20763933 2.47656412 -38.41613103 2.95633498 -36.625 3.4375 C-35.62726563 3.70433594 -34.62953125 3.97117187 -33.6015625 4.24609375 C-31 5 -31 5 -29 6 C-19.69289711 6.91128937 -12.07007847 5.14343349 -3.8125 0.8671875 C-2 0 -2 0 0 0 Z " fill="#B48410" transform="translate(220,345)"/>
<path d="M0 0 C7.1812075 5.01014477 10.95433771 12.42016524 12.71484375 20.94921875 C13.91146334 29.55504456 12.39306507 36.03235613 9 44 C1.57142857 43 1.57142857 43 -2 42 C-1.0757334 39.15017797 -0.1416508 36.33574482 1.0234375 33.57421875 C5.27760127 23.15000895 5.21294533 14.57268152 0.875 4.1796875 C0 2 0 2 0 0 Z " fill="#B58B0B" transform="translate(347,178)"/>
<path d="M0 0 C0.59167969 0.27714844 1.18335938 0.55429687 1.79296875 0.83984375 C7.69046431 3.55774153 7.69046431 3.55774153 14 5 C13.34 6.65 12.68 8.3 12 10 C7.15853891 8.53289058 3.44051028 5.6487256 0 2 C0 1.34 0 0.68 0 0 Z " fill="#B78617" transform="translate(153,287)"/>
<path d="M0 0 C3.35882075 1.41231461 5.13329047 3.03368978 7.3125 5.9375 C8.11107422 6.97197266 8.11107422 6.97197266 8.92578125 8.02734375 C9.28027344 8.67832031 9.63476562 9.32929688 10 10 C9.67 10.99 9.34 11.98 9 13 C6.9375 13.6875 6.9375 13.6875 5 14 C4.80664062 13.32453125 4.61328125 12.6490625 4.4140625 11.953125 C4.15367187 11.06109375 3.89328125 10.1690625 3.625 9.25 C3.36976563 8.36828125 3.11453125 7.4865625 2.8515625 6.578125 C2.0790066 4.23919428 1.16374324 2.16557438 0 0 Z " fill="#B98D13" transform="translate(287,153)"/>
</svg>
